<svg version="1.2" xmlns="http://www.w3.org/2000/svg" viewBox="0 0 1687 292" width="1687" height="292">
	<title>Apartment 71</title>
	<style>
		.s0 { fill: #383838;stroke: #999999;stroke-miterlimit:100;stroke-width: 2 } 
	</style>
	<path id="Apartment 71" class="s0" d="m64.4 223.5v-9.3h102.6l-59.2-180.2-62.1 189.5h-8.9l71-216.7 71.2 216.7zm230.9-76.6l-15.6 9.8-4.2-8 15.6-9.9q19.2-11.7 19.2-37.4 0-47.9-65.8-47.9h-25.7v231.8h-8.3v-241.1h34q36.8 0 55.5 15.2 18.7 14.8 18.7 42 0 30.9-23.4 45.5zm77.5 76.6v-9.3h90.9l-57.2-149.3-60.7 158.6h-9l69.7-182.3 69.7 182.3zm203.3-89.9l37.9 89.9h-9.2l-39-92.7q0.6-0.4 4.7-2.5 4.5-2.5 6.2-3.4 1.6-1.3 5.6-4.1 3.9-2.7 5.8-5.2 2-2.8 4.2-6.1 2.5-3.8 3.6-8.1 1.1-4.7 1.1-9.9 0-19.4-16.7-28.7-16.7-9.3-41.6-9.3h-22.2v170h-8.5v-179.3h30.7q32.9 0 49.7 12.7 17 12.7 17 34.6 0 14.2-8.6 25.3-8.7 10.8-20.7 16.8zm54.9-89.4h125.5v9.3h-58.5v170h-8.4v-170h-58.6zm183.8 179v-9h107.6v-157l-62.7 69.6-62.7-69.6v166.2l-8.5-0.2v-179h8.5l62.7 69.5 62.7-69.5h8.4v179.2zm271-24.1l6.2 6.3q-15.4 21.2-50.2 21.2-34.9 0-49.9-21.9-15.1-21.9-15.1-70.8 0-48.8 15.1-70.8 15-21.9 49.9-21.9 40.5 0 54.9 29.4l-68.3 63.3h-13.1l70.5-65.2q-12.2-18.2-44-18.2-14 0-23.4 3.4-9.5 3.1-17.6 12-7.8 8.7-11.7 25.7-3.9 16.7-3.9 42.3 0 25.7 3.9 42.7 3.9 16.7 11.7 25.6 8.1 8.7 17.6 12.1 9.4 3.1 23.4 3.1 31.8 0 44-18.3zm59.2 24.4h-8.4v-179.2h8.4l90.9 162.2v-162.2h8.3v179.2h-8.3l-90.9-162.5zm131.3-179.2h125.5v9.3h-58.5v169.9h-8.5v-169.9h-58.5zm220.3-37.1h105.4q-2.8 5.2-7.5 14.5-4.8 8.9-16.7 36.2-12.1 26.8-21.3 52.2-8.9 25.1-16.4 56.8-7.6 31.9-7.6 56.6h-8.3q0-34.3 12-78.2 12.2-44.2 25.6-75.1 13.4-30.9 26.2-53.7h-91.4zm152.8 0v216.3h-8.4v-182.7l-14.7 56.6h-8.7l23.4-90.2z"/>
</svg>